<?xml version="1.0" encoding="UTF-8" standalone="no"?>
<!-- Created with Inkscape (http://www.inkscape.org/) -->

<svg
   xmlns:dc="http://purl.org/dc/elements/1.1/"
   xmlns:cc="http://creativecommons.org/ns#"
   xmlns:rdf="http://www.w3.org/1999/02/22-rdf-syntax-ns#"
   xmlns:svg="http://www.w3.org/2000/svg"
   xmlns="http://www.w3.org/2000/svg"
   xmlns:sodipodi="http://sodipodi.sourceforge.net/DTD/sodipodi-0.dtd"
   xmlns:inkscape="http://www.inkscape.org/namespaces/inkscape"
   width="247.52617mm"
   height="105.29015mm"
   viewBox="0 0 247.52617 105.29015"
   version="1.1"
   id="svg8"
   inkscape:version="0.92.3 (2405546, 2018-03-11)">
  <defs
     id="defs2" />
  <sodipodi:namedview
     id="base"
     pagecolor="#ffffff"
     bordercolor="#666666"
     borderopacity="1.0"
     inkscape:pageopacity="0.0"
     inkscape:pageshadow="2"
     inkscape:zoom="0.88"
     inkscape:cx="401.55284"
     inkscape:cy="14.743264"
     inkscape:document-units="mm"
     inkscape:current-layer="layer1"
     showgrid="false"
     fit-margin-top="0"
     fit-margin-left="0"
     fit-margin-right="0"
     fit-margin-bottom="0"
     inkscape:window-width="1920"
     inkscape:window-height="1017"
     inkscape:window-x="-8"
     inkscape:window-y="-8"
     inkscape:window-maximized="1" />
  <metadata
     id="metadata5">
    <rdf:RDF>
      <cc:Work
         rdf:about="">
        <dc:format>image/svg+xml</dc:format>
        <dc:type
           rdf:resource="http://purl.org/dc/dcmitype/StillImage" />
        <dc:title></dc:title>
      </cc:Work>
    </rdf:RDF>
  </metadata>
  <g
     inkscape:label="Layer 1"
     inkscape:groupmode="layer"
     id="layer1"
     transform="translate(0.4108569,7.2973665)">
    <g
       id="g152"
       transform="matrix(0,0.26458333,-0.26458333,0,245.70244,0.81899175)">
      <g
         id="Background">
        <rect
           id="rect68"
           height="930"
           width="320"
           y="0"
           x="0"
           style="fill:#ffffff" />
      </g>
      <g
         id="Layer_1">
        <g
           id="g75">
          <path
             id="path71"
             d="M 0.268,-4.84 H 320.732 V 929.692 H 0.268 Z"
             inkscape:connector-curvature="0"
             style="fill:#67074e" />
          <path
             id="path73"
             d="M 0.268,-4.84 H 320.732 V 929.692 H 0.268 Z"
             inkscape:connector-curvature="0"
             style="fill-opacity:0;stroke:#000000;stroke-width:1" />
        </g>
        <path
           id="path77"
           d="m 131.59,274.37 8.727,48.666 -48.666,8.728 -8.727,-48.667 z"
           inkscape:connector-curvature="0"
           style="fill:#ffffff" />
        <path
           id="path79"
           d="m 87.75,111.202 31.621,2.767 -2.767,31.62 -31.62,-2.766 z"
           inkscape:connector-curvature="0"
           style="fill:#ffffff" />
        <path
           id="path81"
           d="m 193.402,33.87 91.886,19.832 -19.832,91.887 -91.887,-19.832 z"
           inkscape:connector-curvature="0"
           style="fill:#ffffff" />
        <path
           id="path83"
           d="m 177.77,509.383 54.102,-9.54 9.539,54.102 -54.102,9.54 z"
           inkscape:connector-curvature="0"
           style="fill:#ffffff" />
        <path
           id="path85"
           d="M 49.35,804.536 164.167,784.291 184.412,899.108 69.595,919.353 Z"
           inkscape:connector-curvature="0"
           style="fill:#ffffff" />
        <path
           id="path87"
           d="m 63.83,610.99 26.148,-2.288 2.288,26.148 -26.148,2.287 z"
           inkscape:connector-curvature="0"
           style="fill:#ffffff" />
        <path
           id="path89"
           d="m 206.338,632.329 62.514,29.151 -29.151,62.513 -62.513,-29.15 z"
           inkscape:connector-curvature="0"
           style="fill:#ffffff" />
        <path
           id="path91"
           d="m 87.75,111.202 31.621,2.767 -2.767,31.62 -31.62,-2.766 z"
           inkscape:connector-curvature="0"
           style="fill:#ffffff" />
        <path
           id="path93"
           d="M -30.676,44.32 21.825,7.558 58.587,60.06 6.086,96.822 Z"
           inkscape:connector-curvature="0"
           style="fill:#ffffff" />
        <path
           id="path95"
           d="m 251.466,253.737 10.201,12.157 -12.157,10.202 -10.202,-12.158 z"
           inkscape:connector-curvature="0"
           style="fill:#ffffff" />
        <path
           id="path97"
           d="M 39.898,209.369 H 56.379 V 225.85 H 39.898 Z"
           inkscape:connector-curvature="0"
           style="fill:#ffffff" />
        <path
           id="path99"
           d="m 144.277,10.987 h 15.26 v 15.26 h -15.26 z"
           inkscape:connector-curvature="0"
           style="fill:#ffffff" />
        <path
           id="path101"
           d="m 208.98,360.75 h 28.079 v 28.079 H 208.98 Z"
           inkscape:connector-curvature="0"
           style="fill:#ffffff" />
        <path
           id="path103"
           d="m 9.944,441.099 71.075,-59.639 59.639,71.075 -71.075,59.639 z"
           inkscape:connector-curvature="0"
           style="fill:#ffffff" />
        <path
           id="path105"
           d="m 278.008,454.056 52.501,-36.762 36.762,52.501 -52.501,36.763 z"
           inkscape:connector-curvature="0"
           style="fill:#ffffff" />
        <path
           id="path107"
           d="m 221.799,752.631 h 15.26 v 15.26 h -15.26 z"
           inkscape:connector-curvature="0"
           style="fill:#ffffff" />
        <path
           id="path109"
           d="m 54.527,702.55 15.919,-4.266 4.266,15.919 -15.92,4.266 z"
           inkscape:connector-curvature="0"
           style="fill:#ffffff" />
        <path
           id="path111"
           d="m 124.459,661.19 28.854,5.088 -5.088,28.854 -28.854,-5.087 z"
           inkscape:connector-curvature="0"
           style="fill:#ffffff" />
        <path
           id="path113"
           d="m 172.966,186.784 h 48.833 v 48.833 h -48.833 z"
           inkscape:connector-curvature="0"
           style="fill:#ffffff" />
        <path
           id="path115"
           d="m 260.375,877.245 -25.238,9.186 -9.186,-25.239 25.238,-9.186 z"
           inkscape:connector-curvature="0"
           style="fill:#ffffff" />
      </g>
    </g>
  </g>
</svg>
