<?xml version="1.0" encoding="UTF-8"?>
<!DOCTYPE svg PUBLIC "-//W3C//DTD SVG 1.1//EN" "http://www.w3.org/Graphics/SVG/1.1/DTD/svg11.dtd">
<svg version="1.1" xmlns="http://www.w3.org/2000/svg" xmlns:xlink="http://www.w3.org/1999/xlink" x="0" y="0" width="320" height="930" viewBox="0, 0, 320, 930">
  <g id="Background">
    <rect x="0" y="0" width="320" height="930" fill="#FFFFFF"/>
  </g>
  <g id="Layer_1">
    <g>
      <path d="M0.268,-4.84 L320.732,-4.84 L320.732,929.692 L0.268,929.692 z" fill="#67074E"/>
      <path d="M0.268,-4.84 L320.732,-4.84 L320.732,929.692 L0.268,929.692 z" fill-opacity="0" stroke="#000000" stroke-width="1"/>
    </g>
    <path d="M131.59,274.37 L140.317,323.036 L91.651,331.764 L82.924,283.097 z" fill="#FFFFFF"/>
    <path d="M87.75,111.202 L119.371,113.969 L116.604,145.589 L84.984,142.823 z" fill="#FFFFFF"/>
    <path d="M193.402,33.87 L285.288,53.702 L265.456,145.589 L173.569,125.757 z" fill="#FFFFFF"/>
    <path d="M177.77,509.383 L231.872,499.843 L241.411,553.945 L187.309,563.485 z" fill="#FFFFFF"/>
    <path d="M49.35,804.536 L164.167,784.291 L184.412,899.108 L69.595,919.353 z" fill="#FFFFFF"/>
    <path d="M63.83,610.99 L89.978,608.702 L92.266,634.85 L66.118,637.137 z" fill="#FFFFFF"/>
    <path d="M206.338,632.329 L268.852,661.48 L239.701,723.993 L177.188,694.843 z" fill="#FFFFFF"/>
    <path d="M87.75,111.202 L119.371,113.969 L116.604,145.589 L84.984,142.823 z" fill="#FFFFFF"/>
    <path d="M-30.676,44.32 L21.825,7.558 L58.587,60.06 L6.086,96.822 z" fill="#FFFFFF"/>
    <path d="M251.466,253.737 L261.667,265.894 L249.51,276.096 L239.308,263.938 z" fill="#FFFFFF"/>
    <path d="M39.898,209.369 L56.379,209.369 L56.379,225.85 L39.898,225.85 z" fill="#FFFFFF"/>
    <path d="M144.277,10.987 L159.537,10.987 L159.537,26.247 L144.277,26.247 z" fill="#FFFFFF"/>
    <path d="M208.98,360.75 L237.059,360.75 L237.059,388.829 L208.98,388.829 z" fill="#FFFFFF"/>
    <path d="M9.944,441.099 L81.019,381.46 L140.658,452.535 L69.583,512.174 z" fill="#FFFFFF"/>
    <path d="M278.008,454.056 L330.509,417.294 L367.271,469.795 L314.77,506.558 z" fill="#FFFFFF"/>
    <path d="M221.799,752.631 L237.059,752.631 L237.059,767.891 L221.799,767.891 z" fill="#FFFFFF"/>
    <path d="M54.527,702.55 L70.446,698.284 L74.712,714.203 L58.792,718.469 z" fill="#FFFFFF"/>
    <path d="M124.459,661.19 L153.313,666.278 L148.225,695.132 L119.371,690.045 z" fill="#FFFFFF"/>
    <path d="M172.966,186.784 L221.799,186.784 L221.799,235.617 L172.966,235.617 z" fill="#FFFFFF"/>
    <path d="M260.375,877.245 L235.137,886.431 L225.951,861.192 L251.189,852.006 z" fill="#FFFFFF"/>
  </g>
</svg>
